# Blender v2.76 (sub 0) OBJ File: ''
# www.blender.org
mtllib beacon_scene.mtl
o Cylinder
v -0.096734 0.046168 -0.134546
v -0.081276 0.046168 -0.133073
v -0.081276 -0.258932 -0.133073
v -0.066410 0.046168 -0.128703
v -0.066410 -0.258932 -0.128703
v -0.052712 0.046168 -0.121609
v -0.052712 -0.258932 -0.121609
v -0.040704 0.046168 -0.112061
v -0.040704 -0.258932 -0.112061
v -0.030852 0.046168 -0.100426
v -0.030852 -0.258932 -0.100426
v -0.023530 0.046168 -0.087154
v -0.023530 -0.258932 -0.087154
v -0.019021 0.046168 -0.072752
v -0.019021 -0.258932 -0.072752
v -0.017497 0.046168 -0.057774
v -0.017497 -0.258932 -0.057774
v -0.019021 0.046168 -0.042797
v -0.019021 -0.258932 -0.042797
v -0.023530 0.046168 -0.028395
v -0.023530 -0.258932 -0.028395
v -0.030852 0.046168 -0.015123
v -0.030852 -0.258932 -0.015123
v -0.040704 0.046168 -0.003488
v -0.040704 -0.258932 -0.003488
v -0.052712 0.046168 0.006060
v -0.052712 -0.258932 0.006060
v -0.066410 0.046168 0.013155
v -0.066410 -0.258932 0.013155
v -0.081276 0.046168 0.017523
v -0.081276 -0.258932 0.017523
v -0.096734 0.046168 0.018998
v -0.096734 -0.258932 0.018998
v -0.112191 0.046168 0.017523
v -0.112191 -0.258932 0.017523
v -0.127056 0.046168 0.013155
v -0.127056 -0.258932 0.013155
v -0.140757 0.046168 0.006060
v -0.140757 -0.258932 0.006060
v -0.152763 0.046168 -0.003488
v -0.152763 -0.258932 -0.003488
v -0.162616 0.046168 -0.015123
v -0.162616 -0.258932 -0.015123
v -0.169940 0.046168 -0.028395
v -0.169940 -0.258932 -0.028395
v -0.174449 0.046168 -0.042797
v -0.174449 -0.258932 -0.042797
v -0.175971 0.046168 -0.057774
v -0.175971 -0.258932 -0.057774
v -0.174449 0.046168 -0.072752
v -0.174449 -0.258932 -0.072752
v -0.169940 0.046168 -0.087154
v -0.169940 -0.258932 -0.087154
v -0.162616 0.046168 -0.100426
v -0.162616 -0.258932 -0.100426
v -0.152763 0.046168 -0.112061
v -0.152763 -0.258932 -0.112061
v -0.140754 0.046168 -0.121609
v -0.140754 -0.258932 -0.121609
v -0.127056 0.046168 -0.128703
v -0.127056 -0.258932 -0.128703
v -0.112191 0.046168 -0.133073
v -0.096734 -0.258932 -0.134546
v -0.112191 -0.258932 -0.133073
vt 0.428535 0.283917
vt 0.406485 0.283917
vt 0.406484 0.103174
vt 0.384858 0.283917
vt 0.384858 0.103174
vt 0.364487 0.283917
vt 0.364487 0.103174
vt 0.346153 0.283917
vt 0.346153 0.103174
vt 0.330561 0.283917
vt 0.330561 0.103174
vt 0.249397 0.643662
vt 0.231063 0.643662
vt 0.231063 0.462919
vt 0.210692 0.643662
vt 0.210692 0.462919
vt 0.189065 0.643662
vt 0.189065 0.462919
vt 0.167016 0.643662
vt 0.167016 0.462919
vt 0.145389 0.643662
vt 0.145389 0.462919
vt 0.125018 0.643662
vt 0.125018 0.462919
vt 0.106684 0.643662
vt 0.106684 0.462919
vt 0.348895 0.283917
vt 0.348895 0.464660
vt 0.369266 0.283917
vt 0.369267 0.464660
vt 0.390893 0.283917
vt 0.390893 0.464660
vt 0.412943 0.283917
vt 0.412943 0.464660
vt 0.434569 0.283917
vt 0.434569 0.464660
vt 0.454941 0.283917
vt 0.454941 0.464660
vt 0.473275 0.283917
vt 0.473275 0.464660
vt 0.488867 0.283917
vt 0.488867 0.464660
vt 0.507200 0.283917
vt 0.507200 0.464660
vt 0.527572 0.283917
vt 0.527572 0.464660
vt 0.549198 0.283917
vt 0.549198 0.464660
vt 0.571248 0.283917
vt 0.571248 0.464660
vt 0.592874 0.283917
vt 0.592874 0.464660
vt 0.613246 0.283917
vt 0.613246 0.464660
vt 0.631580 0.283917
vt 0.631580 0.464660
vt 0.647172 0.283917
vt 0.647172 0.464660
vt 0.504458 0.283917
vt 0.488866 0.103174
vt 0.470532 0.283917
vt 0.470532 0.103174
vt 0.207597 0.283047
vt 0.330561 0.364125
vt 0.229647 0.462919
vt 0.450161 0.283917
vt 0.428535 0.103174
vt 0.450161 0.103174
vt 0.326259 0.166877
vt 0.251273 0.279590
vt 0.110985 0.219344
vt 0.249397 0.462919
vt 0.330561 0.464660
vt 0.504458 0.103174
vt 0.207597 0.462919
vt 0.185971 0.459463
vt 0.165600 0.452683
vt 0.147266 0.442841
vt 0.131674 0.430314
vt 0.106684 0.381841
vt 0.119423 0.415583
vt 0.110985 0.399216
vt 0.106684 0.364125
vt 0.131674 0.315652
vt 0.110985 0.346749
vt 0.119423 0.330382
vt 0.147266 0.303125
vt 0.165600 0.293282
vt 0.185971 0.286502
vt 0.229647 0.283047
vt 0.251273 0.286502
vt 0.271645 0.293282
vt 0.289979 0.303125
vt 0.305571 0.315652
vt 0.317821 0.330382
vt 0.326259 0.346749
vt 0.330561 0.381841
vt 0.305571 0.430314
vt 0.326259 0.399216
vt 0.317821 0.415583
vt 0.289979 0.442841
vt 0.271645 0.452683
vt 0.251274 0.459463
vt 0.106684 0.201968
vt 0.106684 0.184252
vt 0.110985 0.166877
vt 0.119423 0.150509
vt 0.131674 0.135779
vt 0.147266 0.123252
vt 0.165600 0.113409
vt 0.185971 0.106630
vt 0.207597 0.103174
vt 0.229647 0.103174
vt 0.251273 0.106630
vt 0.271645 0.113409
vt 0.289979 0.123252
vt 0.305571 0.135779
vt 0.317821 0.150509
vt 0.330561 0.184252
vt 0.330561 0.201968
vt 0.326259 0.219344
vt 0.317821 0.235711
vt 0.305571 0.250441
vt 0.289979 0.262968
vt 0.271645 0.272811
vt 0.185971 0.279590
vt 0.165600 0.272810
vt 0.147266 0.262968
vt 0.131674 0.250441
vt 0.119423 0.235711
vn 0.094900 -0.000000 -0.995500
vn 0.282000 -0.000000 -0.959400
vn 0.459900 -0.000000 -0.888000
vn 0.622400 -0.000000 -0.782700
vn 0.763200 -0.000000 -0.646200
vn 0.875600 -0.000000 -0.483000
vn 0.954300 -0.000000 -0.298800
vn 0.994900 -0.000000 -0.101200
vn 0.994900 0.000000 0.101200
vn 0.954300 0.000000 0.298800
vn 0.875600 0.000000 0.483000
vn 0.763200 0.000000 0.646200
vn 0.622400 0.000000 0.782700
vn 0.459900 0.000000 0.888000
vn 0.282000 0.000000 0.959400
vn 0.095000 0.000000 0.995500
vn -0.095000 0.000000 0.995500
vn -0.282000 0.000000 0.959400
vn -0.459800 0.000000 0.888000
vn -0.622400 0.000000 0.782700
vn -0.763100 0.000000 0.646300
vn -0.875600 0.000000 0.483100
vn -0.954300 0.000000 0.298800
vn -0.994900 -0.000000 0.101100
vn -0.994900 0.000000 -0.101100
vn -0.954300 -0.000000 -0.298800
vn -0.875600 -0.000000 -0.483100
vn -0.763100 -0.000000 -0.646300
vn -0.622400 -0.000000 -0.782700
vn -0.459900 -0.000000 -0.888000
vn 0.000000 1.000000 0.000000
vn -0.094900 0.000000 -0.995500
vn -0.282000 -0.000000 -0.959400
vn 0.000000 -1.000000 -0.000000
usemtl None.001
s off
f 1/1/1 2/2/1 3/3/1
f 2/2/2 4/4/2 5/5/2
f 4/4/3 6/6/3 7/7/3
f 6/6/4 8/8/4 9/9/4
f 8/8/5 10/10/5 11/11/5
f 10/12/6 12/13/6 13/14/6
f 12/13/7 14/15/7 15/16/7
f 14/15/8 16/17/8 17/18/8
f 16/17/9 18/19/9 19/20/9
f 18/19/10 20/21/10 21/22/10
f 20/21/11 22/23/11 23/24/11
f 22/23/12 24/25/12 25/26/12
f 24/10/13 26/27/13 27/28/13
f 26/27/14 28/29/14 29/30/14
f 28/29/15 30/31/15 31/32/15
f 30/31/16 32/33/16 33/34/16
f 32/33/17 34/35/17 35/36/17
f 34/35/18 36/37/18 37/38/18
f 36/37/19 38/39/19 39/40/19
f 38/39/20 40/41/20 41/42/20
f 40/41/21 42/43/21 43/44/21
f 42/43/22 44/45/22 45/46/22
f 44/45/23 46/47/23 47/48/23
f 46/47/24 48/49/24 49/50/24
f 48/49/25 50/51/25 51/52/25
f 50/51/26 52/53/26 53/54/26
f 52/53/27 54/55/27 55/56/27
f 54/55/28 56/57/28 57/58/28
f 56/59/29 58/41/29 59/60/29
f 58/41/30 60/61/30 61/62/30
f 36/63/31 20/64/31 4/65/31
f 62/66/32 1/1/32 63/67/32
f 60/61/33 62/66/33 64/68/33
f 31/69/34 47/70/34 64/71/34
f 63/67/1 1/1/1 3/3/1
f 3/3/2 2/2/2 5/5/2
f 5/5/3 4/4/3 7/7/3
f 7/7/4 6/6/4 9/9/4
f 9/9/5 8/8/5 11/11/5
f 11/72/6 10/12/6 13/14/6
f 13/14/7 12/13/7 15/16/7
f 15/16/8 14/15/8 17/18/8
f 17/18/9 16/17/9 19/20/9
f 19/20/10 18/19/10 21/22/10
f 21/22/11 20/21/11 23/24/11
f 23/24/12 22/23/12 25/26/12
f 25/73/13 24/10/13 27/28/13
f 27/28/14 26/27/14 29/30/14
f 29/30/15 28/29/15 31/32/15
f 31/32/16 30/31/16 33/34/16
f 33/34/17 32/33/17 35/36/17
f 35/36/18 34/35/18 37/38/18
f 37/38/19 36/37/19 39/40/19
f 39/40/20 38/39/20 41/42/20
f 41/42/21 40/41/21 43/44/21
f 43/44/22 42/43/22 45/46/22
f 45/46/23 44/45/23 47/48/23
f 47/48/24 46/47/24 49/50/24
f 49/50/25 48/49/25 51/52/25
f 51/52/26 50/51/26 53/54/26
f 53/54/27 52/53/27 55/56/27
f 55/56/28 54/55/28 57/58/28
f 57/74/29 56/59/29 59/60/29
f 59/60/30 58/41/30 61/62/30
f 4/65/31 2/75/31 1/76/31
f 1/76/31 62/77/31 4/65/31
f 60/78/31 58/79/31 52/80/31
f 56/81/31 54/82/31 52/80/31
f 52/80/31 50/83/31 44/84/31
f 48/85/31 46/86/31 44/84/31
f 44/84/31 42/87/31 40/88/31
f 40/88/31 38/89/31 44/84/31
f 36/63/31 34/90/31 32/91/31
f 32/91/31 30/92/31 36/63/31
f 28/93/31 26/94/31 20/64/31
f 24/95/31 22/96/31 20/64/31
f 20/64/31 18/97/31 12/98/31
f 16/99/31 14/100/31 12/98/31
f 12/98/31 10/101/31 8/102/31
f 8/102/31 6/103/31 12/98/31
f 4/65/31 62/77/31 60/78/31
f 58/79/31 56/81/31 52/80/31
f 50/83/31 48/85/31 44/84/31
f 44/84/31 38/89/31 36/63/31
f 36/63/31 30/92/31 28/93/31
f 26/94/31 24/95/31 20/64/31
f 18/97/31 16/99/31 12/98/31
f 12/98/31 6/103/31 4/65/31
f 4/65/31 60/78/31 52/80/31
f 52/80/31 44/84/31 36/63/31
f 36/63/31 28/93/31 20/64/31
f 20/64/31 12/98/31 4/65/31
f 4/65/31 52/80/31 36/63/31
f 64/68/32 62/66/32 63/67/32
f 61/62/33 60/61/33 64/68/33
f 64/71/34 63/104/34 3/105/34
f 3/105/34 5/106/34 64/71/34
f 7/107/34 9/108/34 11/109/34
f 11/109/34 13/110/34 7/107/34
f 15/111/34 17/112/34 19/113/34
f 19/113/34 21/114/34 15/111/34
f 23/115/34 25/116/34 27/117/34
f 27/117/34 29/118/34 23/115/34
f 31/69/34 33/119/34 35/120/34
f 35/120/34 37/121/34 31/69/34
f 39/122/34 41/123/34 43/124/34
f 43/124/34 45/125/34 39/122/34
f 47/70/34 49/90/34 51/63/34
f 51/63/34 53/126/34 55/127/34
f 55/127/34 57/128/34 59/129/34
f 59/129/34 61/130/34 64/71/34
f 64/71/34 5/106/34 7/107/34
f 7/107/34 13/110/34 15/111/34
f 15/111/34 21/114/34 23/115/34
f 23/115/34 29/118/34 31/69/34
f 31/69/34 37/121/34 39/122/34
f 39/122/34 45/125/34 47/70/34
f 47/70/34 51/63/34 64/71/34
f 55/127/34 59/129/34 64/71/34
f 64/71/34 7/107/34 31/69/34
f 15/111/34 23/115/34 31/69/34
f 31/69/34 39/122/34 47/70/34
f 51/63/34 55/127/34 64/71/34
f 7/107/34 15/111/34 31/69/34
o Sky
v 0.453084 -0.243230 0.781539
v 0.204151 -0.232470 -0.826033
v 0.503718 0.389837 -1.097538
v 0.730415 0.389836 0.992193
v -0.255745 -0.254093 0.851136
v -0.427823 -0.256658 -0.754396
v -0.701640 0.389837 -0.974452
v -0.476120 0.389836 1.117651
vt 0.571098 0.207537
vt 0.772412 0.211344
vt 0.882727 0.087157
vt 0.463593 0.109177
vt 0.582023 0.305221
vt 0.756790 0.296619
vt 0.882727 0.413408
vt 0.455877 0.396195
vn -0.867800 0.477700 0.137100
vn -0.867700 0.477500 0.138200
vn -0.923200 0.371100 0.100100
vn -0.923200 0.371100 0.100200
vn 0.928000 0.359000 -0.100000
vn -0.096800 0.352200 -0.930900
vn 0.093700 0.359000 0.928600
vn 0.091900 0.355500 0.930100
vn 0.093300 0.358200 0.929000
vn 0.094800 0.359400 0.928300
usemtl None_NONE
s 1
f 65/131/35 66/132/36 67/133/35
f 65/131/37 67/133/37 68/134/38
f 69/135/39 70/136/39 71/137/39
f 69/135/39 71/137/39 72/138/39
f 65/131/40 69/135/40 72/138/40
f 65/131/40 72/138/40 68/134/40
f 66/132/41 70/136/42 71/137/43
f 66/132/41 71/137/43 67/133/44
o Plane
v 0.458912 -0.247017 0.787060
v -0.249917 -0.257880 0.856657
v -0.421995 -0.260444 -0.748875
v 0.209979 -0.236256 -0.820512
vt 0.571098 0.207537
vt 0.582023 0.305221
vt 0.756790 0.296619
vt 0.772412 0.211344
vn -0.015400 0.999900 0.000100
vn -0.036800 0.999200 0.012400
usemtl None_NONE
s 1
f 73/139/45 74/140/45 75/141/45
f 73/139/46 75/141/46 76/142/46
o Arena
v 0.458754 -0.249638 0.784839
v 0.209821 -0.238878 -0.822733
v 0.509388 0.383429 -1.094238
v 0.736085 0.383428 0.995493
v -0.250075 -0.260501 0.854436
v -0.422153 -0.263066 -0.751096
v -0.695970 0.383429 -0.971152
v -0.470450 0.383428 1.120951
vt 0.571098 0.207537
vt 0.772412 0.211344
vt 0.882727 0.087157
vt 0.463593 0.109177
vt 0.582023 0.305221
vt 0.756790 0.296619
vt 0.882727 0.413408
vt 0.455877 0.396195
vn -0.867700 0.477700 0.137500
vn -0.867700 0.477500 0.138200
vn -0.923200 0.371100 0.100100
vn -0.923200 0.371100 0.100200
vn 0.928000 0.359000 -0.100000
vn -0.096800 0.352200 -0.930900
vn 0.093700 0.359000 0.928600
vn 0.091900 0.355500 0.930100
vn 0.093300 0.358200 0.929000
vn 0.094800 0.359400 0.928300
vn -0.015400 0.999900 0.000100
vn -0.036800 0.999200 0.012400
usemtl None_NONE
s 1
f 77/143/47 78/144/48 79/145/47
f 77/143/49 79/145/49 80/146/50
f 81/147/51 82/148/51 83/149/51
f 81/147/51 83/149/51 84/150/51
f 77/143/52 81/147/52 84/150/52
f 77/143/52 84/150/52 80/146/52
f 78/144/53 82/148/54 83/149/55
f 78/144/53 83/149/55 79/145/56
f 77/143/57 81/147/57 82/148/57
f 77/143/58 82/148/58 78/144/58
