# Blender v2.76 (sub 0) OBJ File: ''
# www.blender.org
mtllib beacon_scene.mtl
o Arena
v 0.458754 -0.249638 0.784839
v 0.282820 -0.252262 -0.827229
v 0.509388 0.383429 -1.094238
v 0.736085 0.383428 0.995493
v -0.250075 -0.260501 0.854436
v -0.422153 -0.263066 -0.751096
v -0.695970 0.383429 -0.971152
v -0.470450 0.383428 1.120951
vt 0.571098 0.207537
vt 0.772412 0.211344
vt 0.882727 0.087157
vt 0.463593 0.109177
vt 0.582023 0.305221
vt 0.756790 0.296619
vt 0.882727 0.413408
vt 0.455877 0.396195
vn -0.923200 0.371100 0.100100
vn -0.923200 0.371100 0.100200
vn 0.928000 0.359000 -0.100000
vn -0.096800 0.352200 -0.930900
vn 0.094900 0.356600 0.929400
vn 0.095000 0.356600 0.929400
vn -0.015400 0.999900 0.000100
vn -0.015200 0.999900 -0.000300
usemtl None_NONE
s 1
f 1/1/1 2/2/2 3/3/1
f 1/1/1 3/3/1 4/4/2
f 5/5/3 6/6/3 7/7/3
f 5/5/3 7/7/3 8/8/3
f 1/1/4 5/5/4 8/8/4
f 1/1/4 8/8/4 4/4/4
f 2/2/5 6/6/6 7/7/5
f 2/2/5 7/7/5 3/3/6
f 1/1/7 5/5/7 6/6/7
f 1/1/8 6/6/8 2/2/8
o Cylinder
v -0.096734 -0.233797 -0.119615
v -0.084282 -0.233797 -0.118428
v -0.084282 -0.257947 -0.118428
v -0.072308 -0.233797 -0.114908
v -0.072308 -0.257947 -0.114908
v -0.061274 -0.233797 -0.109194
v -0.061274 -0.257947 -0.109194
v -0.051601 -0.233797 -0.101503
v -0.051601 -0.257947 -0.101503
v -0.043665 -0.233797 -0.092131
v -0.043665 -0.257947 -0.092131
v -0.037767 -0.233797 -0.081440
v -0.037767 -0.257947 -0.081440
v -0.034135 -0.233797 -0.069839
v -0.034135 -0.257947 -0.069839
v -0.032908 -0.233797 -0.057774
v -0.032908 -0.257947 -0.057774
v -0.034135 -0.233797 -0.045710
v -0.034135 -0.257947 -0.045710
v -0.037767 -0.233797 -0.034109
v -0.037767 -0.257947 -0.034109
v -0.043665 -0.233797 -0.023418
v -0.043665 -0.257947 -0.023418
v -0.051601 -0.233797 -0.014046
v -0.051601 -0.257947 -0.014046
v -0.061274 -0.233797 -0.006355
v -0.061274 -0.257947 -0.006355
v -0.072308 -0.233797 -0.000640
v -0.072308 -0.257947 -0.000640
v -0.084282 -0.233797 0.002879
v -0.084282 -0.257947 0.002879
v -0.096734 -0.233797 0.004067
v -0.096734 -0.257947 0.004067
v -0.109185 -0.233797 0.002879
v -0.109185 -0.257947 0.002879
v -0.121159 -0.233797 -0.000640
v -0.121159 -0.257947 -0.000640
v -0.132195 -0.233797 -0.006355
v -0.132195 -0.257947 -0.006355
v -0.141866 -0.233797 -0.014046
v -0.141866 -0.257947 -0.014046
v -0.149803 -0.233797 -0.023418
v -0.149803 -0.257947 -0.023418
v -0.155702 -0.233797 -0.034109
v -0.155702 -0.257947 -0.034109
v -0.159334 -0.233797 -0.045710
v -0.159334 -0.257947 -0.045710
v -0.160560 -0.233797 -0.057774
v -0.160560 -0.257947 -0.057774
v -0.159334 -0.233797 -0.069839
v -0.159334 -0.257947 -0.069839
v -0.155702 -0.233797 -0.081440
v -0.155702 -0.257947 -0.081440
v -0.149803 -0.233797 -0.092131
v -0.149803 -0.257947 -0.092131
v -0.141866 -0.233797 -0.101503
v -0.141866 -0.257947 -0.101503
v -0.132193 -0.233797 -0.109194
v -0.132193 -0.257947 -0.109194
v -0.121159 -0.233797 -0.114908
v -0.121159 -0.257947 -0.114908
v -0.109185 -0.233797 -0.118428
v -0.096734 -0.257947 -0.119615
v -0.109185 -0.257947 -0.118428
vt 0.595482 0.334407
vt 0.554686 0.334407
vt 0.554685 0.000000
vt 0.514673 0.334407
vt 0.514673 0.000000
vt 0.476982 0.334407
vt 0.476982 0.000000
vt 0.443061 0.334407
vt 0.443061 0.000000
vt 0.414213 0.334407
vt 0.414213 0.000000
vt 0.264046 1.000000
vt 0.230125 1.000000
vt 0.230125 0.665593
vt 0.192434 1.000000
vt 0.192434 0.665593
vt 0.152421 1.000000
vt 0.152421 0.665593
vt 0.111625 1.000000
vt 0.111625 0.665593
vt 0.071612 1.000000
vt 0.071612 0.665593
vt 0.033921 1.000000
vt 0.033921 0.665593
vt 0.000000 1.000000
vt 0.000000 0.665593
vt 0.448134 0.334407
vt 0.448134 0.668814
vt 0.485825 0.334407
vt 0.485826 0.668814
vt 0.525838 0.334407
vt 0.525838 0.668814
vt 0.566635 0.334407
vt 0.566635 0.668814
vt 0.606647 0.334407
vt 0.606647 0.668814
vt 0.644338 0.334407
vt 0.644338 0.668814
vt 0.678259 0.334407
vt 0.678259 0.668814
vt 0.707107 0.334407
vt 0.707107 0.668814
vt 0.741028 0.334407
vt 0.741028 0.668814
vt 0.778719 0.334407
vt 0.778719 0.668814
vt 0.818731 0.334407
vt 0.818731 0.668814
vt 0.859528 0.334407
vt 0.859528 0.668814
vt 0.899540 0.334407
vt 0.899540 0.668814
vt 0.937231 0.334407
vt 0.937231 0.668814
vt 0.971152 0.334407
vt 0.971153 0.668814
vt 1.000000 0.334407
vt 1.000000 0.668814
vt 0.735954 0.334407
vt 0.707106 0.000000
vt 0.673185 0.334407
vt 0.673185 0.000000
vt 0.186708 0.332797
vt 0.414213 0.482806
vt 0.227505 0.665593
vt 0.635494 0.334407
vt 0.595482 0.000000
vt 0.635494 0.000000
vt 0.406254 0.117862
vt 0.267517 0.326402
vt 0.007959 0.214935
vt 0.264046 0.665593
vt 0.414213 0.668814
vt 0.735954 0.000000
vt 0.186708 0.665593
vt 0.146696 0.659199
vt 0.109005 0.646655
vt 0.075084 0.628445
vt 0.046237 0.605268
vt 0.000000 0.515584
vt 0.023571 0.578014
vt 0.007959 0.547732
vt 0.000000 0.482806
vt 0.046236 0.393122
vt 0.007959 0.450658
vt 0.023571 0.420376
vt 0.075084 0.369945
vt 0.109005 0.351735
vt 0.146696 0.339191
vt 0.227505 0.332797
vt 0.267517 0.339191
vt 0.305209 0.351735
vt 0.339130 0.369945
vt 0.367977 0.393122
vt 0.390642 0.420376
vt 0.406254 0.450658
vt 0.414213 0.515584
vt 0.367977 0.605268
vt 0.406254 0.547731
vt 0.390642 0.578014
vt 0.339130 0.628445
vt 0.305209 0.646655
vt 0.267518 0.659199
vt 0.000000 0.182787
vt 0.000000 0.150010
vt 0.007959 0.117862
vt 0.023571 0.087579
vt 0.046236 0.060326
vt 0.075084 0.037148
vt 0.109005 0.018938
vt 0.146696 0.006395
vt 0.186708 0.000000
vt 0.227505 0.000000
vt 0.267517 0.006395
vt 0.305208 0.018938
vt 0.339129 0.037148
vt 0.367977 0.060326
vt 0.390642 0.087579
vt 0.414213 0.150009
vt 0.414213 0.182787
vt 0.406254 0.214935
vt 0.390642 0.245217
vt 0.367977 0.272471
vt 0.339129 0.295648
vt 0.305208 0.313859
vt 0.146696 0.326402
vt 0.109005 0.313858
vt 0.075084 0.295648
vt 0.046236 0.272471
vt 0.023571 0.245217
vn 0.094900 0.000000 -0.995500
vn 0.282000 0.000000 -0.959400
vn 0.459900 0.000000 -0.888000
vn 0.622400 0.000000 -0.782700
vn 0.763200 0.000000 -0.646200
vn 0.875600 0.000000 -0.483000
vn 0.954300 0.000000 -0.298800
vn 0.994900 0.000000 -0.101200
vn 0.994900 0.000000 0.101200
vn 0.954300 0.000000 0.298800
vn 0.875600 -0.000000 0.483000
vn 0.763200 -0.000000 0.646200
vn 0.622400 -0.000000 0.782700
vn 0.459900 0.000000 0.888000
vn 0.282000 -0.000000 0.959400
vn 0.095000 -0.000000 0.995500
vn -0.095000 -0.000000 0.995500
vn -0.282000 -0.000000 0.959400
vn -0.459800 0.000000 0.888000
vn -0.622400 -0.000000 0.782700
vn -0.763100 -0.000000 0.646300
vn -0.875600 -0.000000 0.483100
vn -0.954300 0.000000 0.298800
vn -0.994900 -0.000000 0.101100
vn -0.994900 -0.000000 -0.101100
vn -0.954300 0.000000 -0.298800
vn -0.875600 0.000000 -0.483100
vn -0.763100 -0.000000 -0.646300
vn -0.622400 0.000000 -0.782700
vn -0.459900 0.000000 -0.888000
vn 0.000000 1.000000 0.000000
vn -0.094900 0.000000 -0.995500
vn -0.282000 0.000000 -0.959400
vn 0.000000 -1.000000 -0.000000
usemtl None
s off
f 9/9/9 10/10/9 11/11/9
f 10/10/10 12/12/10 13/13/10
f 12/12/11 14/14/11 15/15/11
f 14/14/12 16/16/12 17/17/12
f 16/16/13 18/18/13 19/19/13
f 18/20/14 20/21/14 21/22/14
f 20/21/15 22/23/15 23/24/15
f 22/23/16 24/25/16 25/26/16
f 24/25/17 26/27/17 27/28/17
f 26/27/18 28/29/18 29/30/18
f 28/29/19 30/31/19 31/32/19
f 30/31/20 32/33/20 33/34/20
f 32/18/21 34/35/21 35/36/21
f 34/35/22 36/37/22 37/38/22
f 36/37/23 38/39/23 39/40/23
f 38/39/24 40/41/24 41/42/24
f 40/41/25 42/43/25 43/44/25
f 42/43/26 44/45/26 45/46/26
f 44/45/27 46/47/27 47/48/27
f 46/47/28 48/49/28 49/50/28
f 48/49/29 50/51/29 51/52/29
f 50/51/30 52/53/30 53/54/30
f 52/53/31 54/55/31 55/56/31
f 54/55/32 56/57/32 57/58/32
f 56/57/33 58/59/33 59/60/33
f 58/59/34 60/61/34 61/62/34
f 60/61/35 62/63/35 63/64/35
f 62/63/36 64/65/36 65/66/36
f 64/67/37 66/49/37 67/68/37
f 66/49/38 68/69/38 69/70/38
f 44/71/39 28/72/39 12/73/39
f 70/74/40 9/9/40 71/75/40
f 68/69/41 70/74/41 72/76/41
f 39/77/42 55/78/42 72/79/42
f 71/75/9 9/9/9 11/11/9
f 11/11/10 10/10/10 13/13/10
f 13/13/11 12/12/11 15/15/11
f 15/15/12 14/14/12 17/17/12
f 17/17/13 16/16/13 19/19/13
f 19/80/14 18/20/14 21/22/14
f 21/22/15 20/21/15 23/24/15
f 23/24/16 22/23/16 25/26/16
f 25/26/17 24/25/17 27/28/17
f 27/28/18 26/27/18 29/30/18
f 29/30/19 28/29/19 31/32/19
f 31/32/20 30/31/20 33/34/20
f 33/81/21 32/18/21 35/36/21
f 35/36/22 34/35/22 37/38/22
f 37/38/23 36/37/23 39/40/23
f 39/40/24 38/39/24 41/42/24
f 41/42/25 40/41/25 43/44/25
f 43/44/26 42/43/26 45/46/26
f 45/46/27 44/45/27 47/48/27
f 47/48/28 46/47/28 49/50/28
f 49/50/29 48/49/29 51/52/29
f 51/52/30 50/51/30 53/54/30
f 53/54/31 52/53/31 55/56/31
f 55/56/32 54/55/32 57/58/32
f 57/58/33 56/57/33 59/60/33
f 59/60/34 58/59/34 61/62/34
f 61/62/35 60/61/35 63/64/35
f 63/64/36 62/63/36 65/66/36
f 65/82/37 64/67/37 67/68/37
f 67/68/38 66/49/38 69/70/38
f 12/73/39 10/83/39 9/84/39
f 9/84/39 70/85/39 12/73/39
f 68/86/39 66/87/39 60/88/39
f 64/89/39 62/90/39 60/88/39
f 60/88/39 58/91/39 52/92/39
f 56/93/39 54/94/39 52/92/39
f 52/92/39 50/95/39 48/96/39
f 48/96/39 46/97/39 52/92/39
f 44/71/39 42/98/39 40/99/39
f 40/99/39 38/100/39 44/71/39
f 36/101/39 34/102/39 28/72/39
f 32/103/39 30/104/39 28/72/39
f 28/72/39 26/105/39 20/106/39
f 24/107/39 22/108/39 20/106/39
f 20/106/39 18/109/39 16/110/39
f 16/110/39 14/111/39 20/106/39
f 12/73/39 70/85/39 68/86/39
f 66/87/39 64/89/39 60/88/39
f 58/91/39 56/93/39 52/92/39
f 52/92/39 46/97/39 44/71/39
f 44/71/39 38/100/39 36/101/39
f 34/102/39 32/103/39 28/72/39
f 26/105/39 24/107/39 20/106/39
f 20/106/39 14/111/39 12/73/39
f 12/73/39 68/86/39 60/88/39
f 60/88/39 52/92/39 44/71/39
f 44/71/39 36/101/39 28/72/39
f 28/72/39 20/106/39 12/73/39
f 12/73/39 60/88/39 44/71/39
f 72/76/40 70/74/40 71/75/40
f 69/70/41 68/69/41 72/76/41
f 72/79/42 71/112/42 11/113/42
f 11/113/42 13/114/42 72/79/42
f 15/115/42 17/116/42 19/117/42
f 19/117/42 21/118/42 15/115/42
f 23/119/42 25/120/42 27/121/42
f 27/121/42 29/122/42 23/119/42
f 31/123/42 33/124/42 35/125/42
f 35/125/42 37/126/42 31/123/42
f 39/77/42 41/127/42 43/128/42
f 43/128/42 45/129/42 39/77/42
f 47/130/42 49/131/42 51/132/42
f 51/132/42 53/133/42 47/130/42
f 55/78/42 57/98/42 59/71/42
f 59/71/42 61/134/42 63/135/42
f 63/135/42 65/136/42 67/137/42
f 67/137/42 69/138/42 72/79/42
f 72/79/42 13/114/42 15/115/42
f 15/115/42 21/118/42 23/119/42
f 23/119/42 29/122/42 31/123/42
f 31/123/42 37/126/42 39/77/42
f 39/77/42 45/129/42 47/130/42
f 47/130/42 53/133/42 55/78/42
f 55/78/42 59/71/42 72/79/42
f 63/135/42 67/137/42 72/79/42
f 72/79/42 15/115/42 39/77/42
f 23/119/42 31/123/42 39/77/42
f 39/77/42 47/130/42 55/78/42
f 59/71/42 63/135/42 72/79/42
f 15/115/42 23/119/42 39/77/42
