# Blender v2.76 (sub 0) OBJ File: ''
# www.blender.org
mtllib beacon_scene.mtl
o Cylinder
v -0.127876 -0.204775 0.575506
v -0.127876 0.204775 0.575506
v -0.119126 -0.204775 0.576367
v -0.119126 0.204775 0.576367
v -0.110712 -0.204775 0.578920
v -0.110712 0.204775 0.578920
v -0.102958 -0.204775 0.583064
v -0.102958 0.204775 0.583064
v -0.096161 -0.204775 0.588642
v -0.096161 0.204775 0.588642
v -0.090584 -0.204775 0.595439
v -0.090584 0.204775 0.595439
v -0.086439 -0.204775 0.603193
v -0.086439 0.204775 0.603193
v -0.083887 -0.204775 0.611607
v -0.083887 0.204775 0.611607
v -0.083025 -0.204775 0.620357
v -0.083025 0.204775 0.620357
v -0.083887 -0.204775 0.629107
v -0.083887 0.204775 0.629107
v -0.086439 -0.204775 0.637521
v -0.086439 0.204775 0.637521
v -0.090584 -0.204775 0.645275
v -0.090584 0.204775 0.645275
v -0.096161 -0.204775 0.652072
v -0.096161 0.204775 0.652072
v -0.102958 -0.204775 0.657650
v -0.102958 0.204775 0.657650
v -0.110712 -0.204775 0.661795
v -0.110712 0.204775 0.661795
v -0.119126 -0.204775 0.664347
v -0.119126 0.204775 0.664347
v -0.127876 -0.204775 0.665209
v -0.127876 0.204775 0.665209
v -0.136626 -0.204775 0.664347
v -0.136626 0.204775 0.664347
v -0.145040 -0.204775 0.661795
v -0.145040 0.204775 0.661795
v -0.152795 -0.204775 0.657650
v -0.152795 0.204775 0.657650
v -0.159591 -0.204775 0.652072
v -0.159591 0.204775 0.652072
v -0.165169 -0.204775 0.645275
v -0.165169 0.204775 0.645275
v -0.169314 -0.204775 0.637521
v -0.169314 0.204775 0.637521
v -0.171866 -0.204775 0.629107
v -0.171866 0.204775 0.629107
v -0.172728 -0.204775 0.620357
v -0.172728 0.204775 0.620357
v -0.171866 -0.204775 0.611607
v -0.171866 0.204775 0.611607
v -0.169314 -0.204775 0.603193
v -0.169314 0.204775 0.603193
v -0.165169 -0.204775 0.595439
v -0.165169 0.204775 0.595439
v -0.159591 -0.204775 0.588642
v -0.159591 0.204775 0.588642
v -0.152794 -0.204775 0.583064
v -0.152794 0.204775 0.583064
v -0.145040 -0.204775 0.578920
v -0.145040 0.204775 0.578920
v -0.136626 -0.204775 0.576367
v -0.136626 0.204775 0.576367
vt 0.595482 0.334407
vt 0.554686 0.334407
vt 0.554685 0.000000
vt 0.514673 0.334407
vt 0.514673 0.000000
vt 0.476982 0.334407
vt 0.476982 0.000000
vt 0.443061 0.334407
vt 0.443061 0.000000
vt 0.414213 0.334407
vt 0.414213 0.000000
vt 0.264046 1.000000
vt 0.230125 1.000000
vt 0.230125 0.665593
vt 0.192434 1.000000
vt 0.192434 0.665593
vt 0.152421 1.000000
vt 0.152421 0.665593
vt 0.111625 1.000000
vt 0.111625 0.665593
vt 0.071612 1.000000
vt 0.071612 0.665593
vt 0.033921 1.000000
vt 0.033921 0.665593
vt 0.000000 1.000000
vt 0.000000 0.665593
vt 0.448134 0.334407
vt 0.448134 0.668814
vt 0.485825 0.334407
vt 0.485826 0.668814
vt 0.525838 0.334407
vt 0.525838 0.668814
vt 0.566635 0.334407
vt 0.566635 0.668814
vt 0.606647 0.334407
vt 0.606647 0.668814
vt 0.644338 0.334407
vt 0.644338 0.668814
vt 0.678259 0.334407
vt 0.678259 0.668814
vt 0.707107 0.334407
vt 0.707107 0.668814
vt 0.741028 0.334407
vt 0.741028 0.668814
vt 0.778719 0.334407
vt 0.778719 0.668814
vt 0.818731 0.334407
vt 0.818731 0.668814
vt 0.859528 0.334407
vt 0.859528 0.668814
vt 0.899540 0.334407
vt 0.899540 0.668814
vt 0.937231 0.334407
vt 0.937231 0.668814
vt 0.971152 0.334407
vt 0.971153 0.668814
vt 1.000000 0.334407
vt 1.000000 0.668814
vt 0.735954 0.334407
vt 0.707106 0.000000
vt 0.673185 0.334407
vt 0.673185 0.000000
vt 0.186708 0.332797
vt 0.414213 0.482806
vt 0.227505 0.665593
vt 0.635494 0.334407
vt 0.595482 0.000000
vt 0.635494 0.000000
vt 0.406254 0.117862
vt 0.267517 0.326402
vt 0.007959 0.214935
vt 0.264046 0.665593
vt 0.414213 0.668814
vt 0.735954 0.000000
vt 0.186708 0.665593
vt 0.146696 0.659199
vt 0.109005 0.646655
vt 0.075084 0.628445
vt 0.046237 0.605268
vt 0.000000 0.515584
vt 0.023571 0.578014
vt 0.007959 0.547732
vt 0.000000 0.482806
vt 0.046236 0.393122
vt 0.007959 0.450658
vt 0.023571 0.420376
vt 0.075084 0.369945
vt 0.109005 0.351735
vt 0.146696 0.339191
vt 0.227505 0.332797
vt 0.267517 0.339191
vt 0.305209 0.351735
vt 0.339130 0.369945
vt 0.367977 0.393122
vt 0.390642 0.420376
vt 0.406254 0.450658
vt 0.414213 0.515584
vt 0.367977 0.605268
vt 0.406254 0.547731
vt 0.390642 0.578014
vt 0.339130 0.628445
vt 0.305209 0.646655
vt 0.267518 0.659199
vt 0.000000 0.182787
vt 0.000000 0.150010
vt 0.007959 0.117862
vt 0.023571 0.087579
vt 0.046236 0.060326
vt 0.075084 0.037148
vt 0.109005 0.018938
vt 0.146696 0.006395
vt 0.186708 0.000000
vt 0.227505 0.000000
vt 0.267517 0.006395
vt 0.305208 0.018938
vt 0.339129 0.037148
vt 0.367977 0.060326
vt 0.390642 0.087579
vt 0.414213 0.150009
vt 0.414213 0.182787
vt 0.406254 0.214935
vt 0.390642 0.245217
vt 0.367977 0.272471
vt 0.339129 0.295648
vt 0.305208 0.313859
vt 0.146696 0.326402
vt 0.109005 0.313858
vt 0.075084 0.295648
vt 0.046236 0.272471
vt 0.023571 0.245217
vn 0.098000 0.000000 -0.995200
vn 0.290300 0.000000 -0.956900
vn 0.471400 0.000000 -0.881900
vn 0.634400 0.000000 -0.773000
vn 0.773000 0.000000 -0.634400
vn 0.881900 0.000000 -0.471400
vn 0.956900 0.000000 -0.290300
vn 0.995200 0.000000 -0.098000
vn 0.995200 0.000000 0.098000
vn 0.956900 0.000000 0.290300
vn 0.881900 0.000000 0.471400
vn 0.773000 0.000000 0.634400
vn 0.634400 0.000000 0.773000
vn 0.471400 0.000000 0.881900
vn 0.290300 0.000000 0.956900
vn 0.098000 0.000000 0.995200
vn -0.098000 0.000000 0.995200
vn -0.290300 0.000000 0.956900
vn -0.471400 0.000000 0.881900
vn -0.634400 0.000000 0.773000
vn -0.773000 0.000000 0.634400
vn -0.881900 0.000000 0.471400
vn -0.956900 0.000000 0.290300
vn -0.995200 0.000000 0.098000
vn -0.995200 0.000000 -0.098000
vn -0.956900 0.000000 -0.290300
vn -0.881900 0.000000 -0.471400
vn -0.773000 0.000000 -0.634400
vn -0.634400 0.000000 -0.773000
vn -0.471400 0.000000 -0.881900
vn 0.000000 1.000000 0.000000
vn -0.098000 0.000000 -0.995200
vn -0.290300 0.000000 -0.956900
vn 0.000000 -1.000000 -0.000000
usemtl None
s off
f 2/1/1 4/2/1 3/3/1
f 4/2/2 6/4/2 5/5/2
f 6/4/3 8/6/3 7/7/3
f 8/6/4 10/8/4 9/9/4
f 10/8/5 12/10/5 11/11/5
f 12/12/6 14/13/6 13/14/6
f 14/13/7 16/15/7 15/16/7
f 16/15/8 18/17/8 17/18/8
f 18/17/9 20/19/9 19/20/9
f 20/19/10 22/21/10 21/22/10
f 22/21/11 24/23/11 23/24/11
f 24/23/12 26/25/12 25/26/12
f 26/10/13 28/27/13 27/28/13
f 28/27/14 30/29/14 29/30/14
f 30/29/15 32/31/15 31/32/15
f 32/31/16 34/33/16 33/34/16
f 34/33/17 36/35/17 35/36/17
f 36/35/18 38/37/18 37/38/18
f 38/37/19 40/39/19 39/40/19
f 40/39/20 42/41/20 41/42/20
f 42/41/21 44/43/21 43/44/21
f 44/43/22 46/45/22 45/46/22
f 46/45/23 48/47/23 47/48/23
f 48/47/24 50/49/24 49/50/24
f 50/49/25 52/51/25 51/52/25
f 52/51/26 54/53/26 53/54/26
f 54/53/27 56/55/27 55/56/27
f 56/55/28 58/57/28 57/58/28
f 58/59/29 60/41/29 59/60/29
f 60/41/30 62/61/30 61/62/30
f 38/63/31 22/64/31 6/65/31
f 64/66/32 2/1/32 1/67/32
f 62/61/33 64/66/33 63/68/33
f 31/69/34 47/70/34 63/71/34
f 1/67/1 2/1/1 3/3/1
f 3/3/2 4/2/2 5/5/2
f 5/5/3 6/4/3 7/7/3
f 7/7/4 8/6/4 9/9/4
f 9/9/5 10/8/5 11/11/5
f 11/72/6 12/12/6 13/14/6
f 13/14/7 14/13/7 15/16/7
f 15/16/8 16/15/8 17/18/8
f 17/18/9 18/17/9 19/20/9
f 19/20/10 20/19/10 21/22/10
f 21/22/11 22/21/11 23/24/11
f 23/24/12 24/23/12 25/26/12
f 25/73/13 26/10/13 27/28/13
f 27/28/14 28/27/14 29/30/14
f 29/30/15 30/29/15 31/32/15
f 31/32/16 32/31/16 33/34/16
f 33/34/17 34/33/17 35/36/17
f 35/36/18 36/35/18 37/38/18
f 37/38/19 38/37/19 39/40/19
f 39/40/20 40/39/20 41/42/20
f 41/42/21 42/41/21 43/44/21
f 43/44/22 44/43/22 45/46/22
f 45/46/23 46/45/23 47/48/23
f 47/48/24 48/47/24 49/50/24
f 49/50/25 50/49/25 51/52/25
f 51/52/26 52/51/26 53/54/26
f 53/54/27 54/53/27 55/56/27
f 55/56/28 56/55/28 57/58/28
f 57/74/29 58/59/29 59/60/29
f 59/60/30 60/41/30 61/62/30
f 6/65/31 4/75/31 2/76/31
f 2/76/31 64/77/31 6/65/31
f 62/78/31 60/79/31 54/80/31
f 58/81/31 56/82/31 54/80/31
f 54/80/31 52/83/31 46/84/31
f 50/85/31 48/86/31 46/84/31
f 46/84/31 44/87/31 42/88/31
f 42/88/31 40/89/31 46/84/31
f 38/63/31 36/90/31 34/91/31
f 34/91/31 32/92/31 38/63/31
f 30/93/31 28/94/31 22/64/31
f 26/95/31 24/96/31 22/64/31
f 22/64/31 20/97/31 14/98/31
f 18/99/31 16/100/31 14/98/31
f 14/98/31 12/101/31 10/102/31
f 10/102/31 8/103/31 14/98/31
f 6/65/31 64/77/31 62/78/31
f 60/79/31 58/81/31 54/80/31
f 52/83/31 50/85/31 46/84/31
f 46/84/31 40/89/31 38/63/31
f 38/63/31 32/92/31 30/93/31
f 28/94/31 26/95/31 22/64/31
f 20/97/31 18/99/31 14/98/31
f 14/98/31 8/103/31 6/65/31
f 6/65/31 62/78/31 54/80/31
f 54/80/31 46/84/31 38/63/31
f 38/63/31 30/93/31 22/64/31
f 22/64/31 14/98/31 6/65/31
f 6/65/31 54/80/31 38/63/31
f 63/68/32 64/66/32 1/67/32
f 61/62/33 62/61/33 63/68/33
f 63/71/34 1/104/34 3/105/34
f 3/105/34 5/106/34 63/71/34
f 7/107/34 9/108/34 11/109/34
f 11/109/34 13/110/34 7/107/34
f 15/111/34 17/112/34 19/113/34
f 19/113/34 21/114/34 15/111/34
f 23/115/34 25/116/34 27/117/34
f 27/117/34 29/118/34 23/115/34
f 31/69/34 33/119/34 35/120/34
f 35/120/34 37/121/34 31/69/34
f 39/122/34 41/123/34 43/124/34
f 43/124/34 45/125/34 39/122/34
f 47/70/34 49/90/34 51/63/34
f 51/63/34 53/126/34 55/127/34
f 55/127/34 57/128/34 59/129/34
f 59/129/34 61/130/34 63/71/34
f 63/71/34 5/106/34 7/107/34
f 7/107/34 13/110/34 15/111/34
f 15/111/34 21/114/34 23/115/34
f 23/115/34 29/118/34 31/69/34
f 31/69/34 37/121/34 39/122/34
f 39/122/34 45/125/34 47/70/34
f 47/70/34 51/63/34 63/71/34
f 55/127/34 59/129/34 63/71/34
f 63/71/34 7/107/34 31/69/34
f 15/111/34 23/115/34 31/69/34
f 31/69/34 39/122/34 47/70/34
f 51/63/34 55/127/34 63/71/34
f 7/107/34 15/111/34 31/69/34
o Arena
v 0.458754 -0.249638 0.784839
v 0.282820 -0.252262 -0.827229
v 0.509388 0.383429 -1.094238
v 0.736085 0.383428 0.995493
v -0.250075 -0.260501 0.854436
v -0.422153 -0.263066 -0.751096
v -0.695970 0.383429 -0.971152
v -0.470450 0.383428 1.120951
vt 0.571098 0.207537
vt 0.772412 0.211344
vt 0.882727 0.087157
vt 0.463593 0.109177
vt 0.582023 0.305221
vt 0.756790 0.296619
vt 0.882727 0.413408
vt 0.455877 0.396195
vn -0.923200 0.371100 0.100100
vn -0.923200 0.371100 0.100200
vn 0.928000 0.359000 -0.100000
vn -0.096800 0.352200 -0.930900
vn 0.094900 0.356600 0.929400
vn 0.095000 0.356600 0.929400
vn -0.015400 0.999900 0.000100
vn -0.015200 0.999900 -0.000300
usemtl None_NONE
s 1
f 65/131/35 66/132/36 67/133/35
f 65/131/35 67/133/35 68/134/36
f 69/135/37 70/136/37 71/137/37
f 69/135/37 71/137/37 72/138/37
f 65/131/38 69/135/38 72/138/38
f 65/131/38 72/138/38 68/134/38
f 66/132/39 70/136/40 71/137/39
f 66/132/39 71/137/39 67/133/40
f 65/131/41 69/135/41 70/136/41
f 65/131/42 70/136/42 66/132/42
